<?xml version="1.0" encoding="UTF-8" standalone="no"?>
<!-- Created with Inkscape (http://www.inkscape.org/) -->

<svg
   width="91.238869mm"
   height="115.66297mm"
   viewBox="0 0 91.238869 115.66297"
   version="1.1"
   id="svg5"
   inkscape:version="1.1.2 (0a00cf5339, 2022-02-04)"
   sodipodi:docname="orgasmo.svg"
   xmlns:inkscape="http://www.inkscape.org/namespaces/inkscape"
   xmlns:sodipodi="http://sodipodi.sourceforge.net/DTD/sodipodi-0.dtd"
   xmlns="http://www.w3.org/2000/svg"
   xmlns:svg="http://www.w3.org/2000/svg">
  <sodipodi:namedview
     id="namedview7"
     pagecolor="#ffffff"
     bordercolor="#666666"
     borderopacity="1.0"
     inkscape:pageshadow="2"
     inkscape:pageopacity="0.0"
     inkscape:pagecheckerboard="0"
     inkscape:document-units="mm"
     showgrid="false"
     inkscape:zoom="0.90583672"
     inkscape:cx="616.55703"
     inkscape:cy="30.910648"
     inkscape:window-width="2560"
     inkscape:window-height="1403"
     inkscape:window-x="0"
     inkscape:window-y="0"
     inkscape:window-maximized="1"
     inkscape:current-layer="layer1"
     fit-margin-top="0"
     fit-margin-left="0"
     fit-margin-right="0"
     fit-margin-bottom="0" />
  <defs
     id="defs2" />
  <g
     inkscape:label="Capa 1"
     inkscape:groupmode="layer"
     id="layer1"
     transform="translate(-89.811276,-116.64212)">
    <path
       style="fill:#2b0000;stroke:#000000;stroke-width:0.264583px;stroke-linecap:butt;stroke-linejoin:miter;stroke-opacity:1"
       d="m 112.78927,156.88216 c 113.24682,-18.7716 33.67795,88.28142 -0.12302,46.53284 -13.7555,3.21263 -30.667497,-34.47392 0.12302,-46.53284 z"
       id="path5896"
       sodipodi:nodetypes="ccc" />
    <path
       style="fill:#aa0000;stroke:#000000;stroke-width:0.264583px;stroke-linecap:butt;stroke-linejoin:miter;stroke-opacity:1"
       d="m 133.25661,201.40732 c 7.15159,-5.55286 21.19882,-10.01761 29.82925,-6.4325 0.19219,12.41253 -39.02381,27.96506 -29.82925,6.4325 z"
       id="path4764"
       sodipodi:nodetypes="ccc" />
    <path
       style="fill:#800000;stroke:#000000;stroke-width:0.264583px;stroke-linecap:butt;stroke-linejoin:miter;stroke-opacity:1"
       d="m 92.303419,164.25166 1.955644,-17.15143 9.090847,-14.79805 9.04446,-9.04445 17.13549,-4.59145 h 17.57037 l 12.39918,7.15868 12.30758,21.31735 6.61214,24.67685 v 26.98951 l -6.9479,18.59665 -10.43551,8.56915 -10.49702,4.31079 -31.49743,-4.99752 -14.49669,-11.89401 -8.067137,-8.78969 -2.009818,-10.60044 16.017685,7.87835 29.46295,6.12032 20.74083,-3.61941 7.36258,-12.88488 -0.60621,-14.25184 -13.14088,-27.95847 -11.28811,-5.53337 -10.63688,-3.54486 -16.40384,4.66717 -4.01359,5.51071 -4.21043,8.42661 -7.885111,13.09372 -8.394997,8.8363 z"
       id="path2812"
       sodipodi:nodetypes="ccccccccccccccccccccccccccccccc" />
    <path
       style="fill:#ffffff;stroke:#000000;stroke-width:0.264583px;stroke-linecap:butt;stroke-linejoin:miter;stroke-opacity:1"
       d="m 119.37391,143.54971 c 14.00465,-8.8727 38.73302,3.43488 33.02251,8.27102 -0.11872,-0.0413 -4.45545,2.7806 -30.34478,1.86701 -18.95284,-0.66882 -5.91803,-9.28742 -2.67773,-10.13803 z"
       id="path6767"
       sodipodi:nodetypes="ccsc" />
    <path
       style="fill:#040101;stroke-width:0.344577"
       d="m 141.84446,232.02768 c -5.8161,-0.22138 -11.18441,-2.8791 -16.87901,-3.88455 -10.09086,-2.58675 -19.29669,-8.43219 -26.13993,-16.23179 -5.498054,-6.7544 -7.124932,-15.53938 -8.502532,-23.90344 -0.866274,-8.38118 -0.351592,-16.84285 -0.43413,-25.25633 0.547692,-10.29889 2.89792,-20.84779 9.279478,-29.19781 3.154244,-5.26038 7.424894,-9.99229 13.047174,-12.65337 4.16749,-2.85633 9.09952,-4.75839 14.2215,-4.0335 5.67787,0.49659 11.3431,-0.16271 17.01482,-0.22477 6.60115,1.28 13.56599,3.27924 17.87456,8.85523 5.26138,5.67964 9.19944,12.52744 11.68427,19.85122 4.62597,12.75385 7.18722,26.22495 7.75287,39.77495 1.39597,12.23983 -2.38561,28.06827 -9.63743,36.5757 -6.92341,8.5997 -18.67035,11.59304 -29.28164,10.32846 z m 8.61443,-4.10286 c 9.5718,-0.68469 18.26794,-7.15913 21.82735,-16.02912 1.85051,-5.07206 2.27424,-10.57012 4.03689,-15.72303 1.66584,-13.41699 -1.56241,-26.83685 -4.92216,-39.75612 -3.30175,-11.51776 -8.00322,-23.54286 -17.86682,-31.00606 -4.32875,-2.79492 -9.49764,-4.42333 -14.66564,-3.41743 -4.90185,1.14078 -9.72253,-0.51425 -14.6055,-0.47823 -5.87672,0.50461 -10.72495,4.29618 -15.3364,7.57021 -5.67055,6.34304 -10.76805,13.74436 -12.71983,22.14044 -0.809503,7.94971 -3.305195,15.74533 -3.317277,23.77079 2.495948,4.82925 4.835909,-6.17021 6.492465,-8.18433 2.614132,-4.20863 3.624932,-9.27695 6.850352,-13.16929 3.74734,-5.93317 8.09342,-12.40126 15.3796,-14.12747 5.61871,-1.3066 11.56016,0.32384 17.14917,-1.43756 5.80892,-1.7413 9.2339,3.53401 12.77703,7.01224 12.5952,11.23194 26.01417,38.94345 17.90998,49.94408 -3.90933,5.87676 -8.10188,12.88187 -15.61439,14.31674 -9.62721,2.26209 -18.00938,-0.82742 -26.76535,-1.55097 -6.83371,-1.51526 -13.88744,-2.34357 -20.57767,-4.31053 -4.5873,-2.14716 -7.259267,-7.77698 -9.611135,-4.65742 1.371836,5.26699 4.568085,10.15825 7.665025,14.56197 7.44438,6.72154 16.69367,11.36192 26.55688,13.22461 6.02862,1.79316 12.51002,2.33768 18.73643,1.44297 l 0.621,-0.13645 z m -1.89517,-22.37451 c 4.1581,0.0651 8.73534,-0.0571 11.19559,-4.04599 4.23558,-6.59331 -6.32145,-4.33504 -9.71169,-3.7688 -5.37565,1.1284 -13.20105,0.96468 -16.02372,6.26091 2.29836,4.07372 8.14915,1.09419 12.01009,1.6746 0.84324,-0.0402 1.68649,-0.0805 2.52973,-0.12072 z m -21.94415,-3.21868 c 14.39606,-10.54493 22.44652,-9.12241 29.2047,-9.53652 18.8812,-1.14961 6.87048,-28.49792 -0.52089,-35.83615 -15.48083,0.22279 -28.1297,-0.42957 -42.51411,-0.0768 -7.95413,7.6231 -9.81686,12.07569 -15.105234,24.34493 -3.025362,5.10231 1.216047,10.50175 4.802094,13.97689 5.36918,6.06061 14.16185,5.40665 21.34145,7.49179 0.92812,-0.0666 1.9899,0.30216 2.79199,-0.36412 z m 23.64195,-50.93977 c -0.186,-2.94067 -5.05953,-5.7581 -7.24505,-7.63756 -5.16869,-2.32424 -11.05636,0.6434 -16.53024,0.2772 -4.59842,-0.54064 -11.43874,2.28761 -12.10634,8.11179 22.3517,0.30815 16.4432,-0.003 35.88163,-0.75143 z"
       id="path1316"
       sodipodi:nodetypes="ccccccccccccccscccccccccccccccccccccccscccccccccccccccccccc" />
  </g>
</svg>
