<?xml version="1.0" encoding="UTF-8" standalone="no"?>
<!-- Created with Inkscape (http://www.inkscape.org/) -->

<svg
   width="84.380692mm"
   height="107.23479mm"
   viewBox="0 0 84.380692 107.23479"
   version="1.1"
   id="svg5"
   inkscape:version="1.1.2 (0a00cf5339, 2022-02-04)"
   sodipodi:docname="orgasmo.svg"
   xmlns:inkscape="http://www.inkscape.org/namespaces/inkscape"
   xmlns:sodipodi="http://sodipodi.sourceforge.net/DTD/sodipodi-0.dtd"
   xmlns="http://www.w3.org/2000/svg"
   xmlns:svg="http://www.w3.org/2000/svg">
  <sodipodi:namedview
     id="namedview7"
     pagecolor="#ffffff"
     bordercolor="#666666"
     borderopacity="1.0"
     inkscape:pageshadow="2"
     inkscape:pageopacity="0.0"
     inkscape:pagecheckerboard="0"
     inkscape:document-units="mm"
     showgrid="false"
     inkscape:zoom="0.32026164"
     inkscape:cx="310.68347"
     inkscape:cy="265.40799"
     inkscape:window-width="2560"
     inkscape:window-height="1403"
     inkscape:window-x="0"
     inkscape:window-y="0"
     inkscape:window-maximized="1"
     inkscape:current-layer="layer1"
     fit-margin-top="0"
     fit-margin-left="0"
     fit-margin-right="0"
     fit-margin-bottom="0" />
  <defs
     id="defs2" />
  <g
     inkscape:label="Capa 1"
     inkscape:groupmode="layer"
     id="layer1"
     transform="translate(-329.43306,-122.8603)">
    <path
       style="fill:#2b0000;stroke:#000000;stroke-width:0.264583px;stroke-linecap:butt;stroke-linejoin:miter;stroke-opacity:1"
       d="m 349.69559,158.3608 c 113.24682,-18.7716 33.67795,88.28142 -0.12302,46.53284 -13.7555,3.21263 -30.6675,-34.47392 0.12302,-46.53284 z"
       id="path5896-9"
       sodipodi:nodetypes="ccc" />
    <path
       style="fill:#aa0000;stroke:#000000;stroke-width:0.264583px;stroke-linecap:butt;stroke-linejoin:miter;stroke-opacity:1"
       d="m 368.35392,206.0678 c 5.85203,-11.07228 21.19882,-10.01761 29.82925,-6.4325 0.19219,12.41253 -39.02381,27.96506 -29.82925,6.4325 z"
       id="path4764-3"
       sodipodi:nodetypes="ccc" />
    <path
       style="fill:#040101;stroke-width:0.344577"
       d="m 336.28829,168.29058 c 2.61413,-4.20863 3.62493,-9.27695 6.85035,-13.16929 3.74734,-5.93317 8.09342,-12.40126 15.3796,-14.12747 5.61871,-1.3066 11.56016,0.32384 17.14917,-1.43756 5.80892,-1.7413 9.2339,3.53401 12.77703,7.01224 12.5952,11.23194 26.01417,38.94345 17.90998,49.94408 -3.90933,5.87676 -8.10188,12.88187 -15.61439,14.31674 -9.62721,2.26209 -18.00938,-0.82742 -26.76535,-1.55097 -6.83371,-1.51526 -13.88744,-2.34357 -20.57767,-4.31053 -4.98903,-1.39853 -7.05025,0.78122 -9.44887,-3.78283 -3.42177,-6.51086 -5.81691,-20.76442 -3.74345,-27.6169 1.1681,-3.86042 3.04624,-1.07805 6.0836,-5.27751 z m 60.37734,34.69238 c 4.23558,-6.59331 -8.0386,-6.10753 -11.42884,-5.54129 -8.05333,-0.005 -15.23545,0.22153 -16.88287,8.62613 2.29836,4.07372 10.95982,1.20437 14.82076,1.78478 7.2007,-1.65749 10.93125,-1.11932 13.49095,-4.86962 z m -3.93504,-8.70921 c 23.49601,-0.19115 6.87048,-28.49792 -0.52089,-35.83615 -15.48083,0.22279 -28.1297,-0.42957 -42.51411,-0.0768 -7.95413,7.6231 -9.81686,12.07569 -15.10524,24.34493 -3.02536,5.10231 1.21605,10.50175 4.8021,13.97689 32.91713,-5.41107 33.83235,-3.7866 53.33814,-2.40887 z m -5.56275,-41.40325 c -0.186,-2.94067 -5.05953,-5.7581 -7.24505,-7.63756 -5.16869,-2.32424 -11.05636,0.6434 -16.53024,0.2772 -4.59842,-0.54064 -11.43874,2.28761 -12.10634,8.11179 22.3517,0.30815 16.4432,-0.003 35.88163,-0.75143 z"
       id="path1316-2"
       sodipodi:nodetypes="cccccccccssccccccccccccccccc" />
    <path
       id="path2812-8"
       style="fill:#800000;stroke:#000000;stroke-width:0.264583px;stroke-linecap:butt;stroke-linejoin:miter;stroke-opacity:1"
       d="m 361.16916,122.99318 c -5.87672,0.50461 -10.72508,4.29656 -15.33653,7.57059 -5.67055,6.34304 -10.76786,13.74417 -12.71963,22.14026 -0.80951,7.94971 -3.30503,15.74517 -3.31712,23.77064 -0.68164,18.79524 4.83555,-6.16988 6.49212,-8.184 2.61412,-4.20863 3.6248,-9.2774 6.85022,-13.16974 3.74734,-5.93317 8.09376,-12.40109 15.37994,-14.1273 5.61871,-1.3066 11.55981,0.32376 17.14883,-1.43764 5.80892,-1.7413 9.23438,3.53426 12.77751,7.01249 12.5952,11.23194 26.01369,38.94309 17.9095,49.94372 -3.90933,5.87676 -8.10152,12.88209 -15.61403,14.31696 -9.62721,2.26209 -18.00932,-0.82726 -26.76529,-1.55081 -6.83371,-1.51526 -13.88785,-2.34389 -20.57808,-4.31085 -4.5873,-2.14716 -17.0969,-24.12326 -9.61078,-4.65708 1.37183,5.26699 4.56771,10.15818 7.66465,14.5619 l 3.90416,3.20291 c 6.6702,4.99396 14.4469,8.47189 22.65287,10.02161 6.02863,1.79316 12.50992,2.33751 18.73633,1.4428 l 0.62115,-0.13642 c 9.5718,-0.68469 18.2682,-7.159 21.82761,-16.029 1.85051,-5.07205 2.27379,-10.57017 4.03644,-15.72307 1.66584,-13.41699 -1.56243,-26.83695 -4.92218,-39.75623 -3.30175,-11.51776 -8.00301,-23.54266 -17.86661,-31.00586 -4.32875,-2.79493 -9.49777,-4.42327 -14.66577,-3.41736 -4.90185,1.14078 -9.72234,-0.51454 -14.60531,-0.47852 z m 16.95607,21.64053 1.79731,0.59893 c -0.59013,-0.26536 -1.19012,-0.45869 -1.79731,-0.59893 z"
       sodipodi:nodetypes="cccccccccccccccccccccccccccc" />
  </g>
</svg>
