<?xml version="1.0" encoding="UTF-8" standalone="no"?>
<!-- Created with Inkscape (http://www.inkscape.org/) -->

<svg
   width="84.380692mm"
   height="107.23479mm"
   viewBox="0 0 84.380692 107.23479"
   version="1.1"
   id="svg5"
   inkscape:version="1.1.2 (0a00cf5339, 2022-02-04)"
   sodipodi:docname="orgasmo.svg"
   xmlns:inkscape="http://www.inkscape.org/namespaces/inkscape"
   xmlns:sodipodi="http://sodipodi.sourceforge.net/DTD/sodipodi-0.dtd"
   xmlns="http://www.w3.org/2000/svg"
   xmlns:svg="http://www.w3.org/2000/svg">
  <sodipodi:namedview
     id="namedview7"
     pagecolor="#ffffff"
     bordercolor="#666666"
     borderopacity="1.0"
     inkscape:pageshadow="2"
     inkscape:pageopacity="0.0"
     inkscape:pagecheckerboard="0"
     inkscape:document-units="mm"
     showgrid="false"
     inkscape:zoom="1.8116734"
     inkscape:cx="406.53022"
     inkscape:cy="327.87366"
     inkscape:window-width="2560"
     inkscape:window-height="1403"
     inkscape:window-x="0"
     inkscape:window-y="0"
     inkscape:window-maximized="1"
     inkscape:current-layer="layer1"
     fit-margin-top="0"
     fit-margin-left="0"
     fit-margin-right="0"
     fit-margin-bottom="0" />
  <defs
     id="defs2" />
  <g
     inkscape:label="Capa 1"
     inkscape:groupmode="layer"
     id="layer1"
     transform="translate(-329.43306,-122.8603)">
    <ellipse
       style="fill:#2b0000;fill-opacity:1;stroke:none;stroke-width:0.269969;stroke-opacity:0.451724"
       id="path3757"
       cx="371.06113"
       cy="180.33524"
       rx="39.939468"
       ry="42.771282" />
    <rect
       style="fill:#ffffff;fill-opacity:1;stroke:none;stroke-width:0.288597;stroke-opacity:0.451724"
       id="rect964"
       width="43.68417"
       height="14.326068"
       x="346.37262"
       y="142.3618" />
    <rect
       style="fill:#ffffff;fill-opacity:1;stroke:none;stroke-width:0.415771;stroke-opacity:0.451724"
       id="rect964-3"
       width="63.65078"
       height="10.779937"
       x="343.31247"
       y="201.18947"
       ry="2.7634189"
       rx="0" />
    <path
       style="fill:#040101;stroke-width:0.344577"
       d="m 336.28829,168.29058 c 2.61413,-4.20863 3.62493,-9.27695 6.85035,-13.16929 3.74734,-5.93317 8.09342,-12.40126 15.3796,-14.12747 5.61871,-1.3066 11.56016,0.32384 17.14917,-1.43756 5.80892,-1.7413 9.2339,3.53401 12.77703,7.01224 12.5952,11.23194 26.01417,38.94345 17.90998,49.94408 -3.90933,5.87676 -8.10188,12.88187 -15.61439,14.31674 -9.62721,2.26209 -18.00938,-0.82742 -26.76535,-1.55097 -6.83371,-1.51526 -13.88744,-2.34357 -20.57767,-4.31053 -4.98903,-1.39853 -7.05025,0.78122 -9.44887,-3.78283 -3.42177,-6.51086 -5.81691,-20.76442 -3.74345,-27.6169 1.1681,-3.86042 3.04624,-1.07805 6.0836,-5.27751 z m 61.70218,34.51007 c -1.35034,-1.06197 -43.84775,-1.44257 -42.91809,0.21259 2.11375,1.45945 18.04259,4.83426 27.21793,4.8553 7.60308,-0.6596 11.00176,-0.1603 15.70016,-5.06789 z m -5.92763,-4.00154 c 23.49601,-0.19115 7.53823,-33.02328 0.14686,-40.36151 -15.48083,0.22279 -28.1297,-0.42957 -42.51411,-0.0768 -7.95413,7.6231 -9.81686,12.07569 -15.10524,24.34493 -3.02536,5.10231 1.06516,8.73525 4.65121,12.21039 8.77429,3.63279 33.31549,2.50526 52.82128,3.88299 z m -4.895,-45.92861 c -0.186,-2.94067 -5.05953,-5.7581 -7.24505,-7.63756 -5.16869,-2.32424 -11.05636,0.6434 -16.53024,0.2772 -4.59842,-0.54064 -11.43874,2.28761 -12.10634,8.11179 22.3517,0.30815 16.4432,-0.003 35.88163,-0.75143 z"
       id="path1316-2"
       sodipodi:nodetypes="cccccccccsscccccccccccccccc" />
    <path
       id="path2812-8"
       style="fill:#800000;stroke:none;stroke-width:0.264583px;stroke-linecap:butt;stroke-linejoin:miter;stroke-opacity:1"
       d="m 361.16916,122.99318 c -5.87672,0.50461 -10.72508,4.29656 -15.33653,7.57059 -5.67055,6.34304 -10.76786,13.74417 -12.71963,22.14026 -0.80951,7.94971 -3.30503,15.74517 -3.31712,23.77064 -0.68164,18.79524 4.83555,-6.16988 6.49212,-8.184 2.61412,-4.20863 3.6248,-9.2774 6.85022,-13.16974 3.74734,-5.93317 8.09376,-12.40109 15.37994,-14.1273 5.61871,-1.3066 11.55981,0.32376 17.14883,-1.43764 5.80892,-1.7413 9.23438,3.53426 12.77751,7.01249 12.5952,11.23194 26.01369,38.94309 17.9095,49.94372 -3.90933,5.87676 -8.10152,12.88209 -15.61403,14.31696 -9.62721,2.26209 -18.00932,-0.82726 -26.76529,-1.55081 -6.83371,-1.51526 -13.88785,-2.34389 -20.57808,-4.31085 -4.5873,-2.14716 -17.0969,-24.12326 -9.61078,-4.65708 1.37183,5.26699 4.56771,10.15818 7.66465,14.5619 l 3.90416,3.20291 c 6.6702,4.99396 14.4469,8.47189 22.65287,10.02161 6.02863,1.79316 12.50992,2.33751 18.73633,1.4428 l 0.62115,-0.13642 c 9.5718,-0.68469 18.2682,-7.159 21.82761,-16.029 1.85051,-5.07205 2.27379,-10.57017 4.03644,-15.72307 1.66584,-13.41699 -1.56243,-26.83695 -4.92218,-39.75623 -3.30175,-11.51776 -8.00301,-23.54266 -17.86661,-31.00586 -4.32875,-2.79493 -9.49777,-4.42327 -14.66577,-3.41736 -4.90185,1.14078 -9.72234,-0.51454 -14.60531,-0.47852 z m 16.95607,21.64053 1.79731,0.59893 c -0.59013,-0.26536 -1.19012,-0.45869 -1.79731,-0.59893 z"
       sodipodi:nodetypes="cccccccccccccccccccccccccccc" />
    <ellipse
       style="fill:#ffffff;fill-opacity:1;stroke:none;stroke-width:0.264583;stroke-opacity:0.451724"
       id="path3651"
       cx="241.70895"
       cy="168.82927"
       rx="21.455631"
       ry="25.489553" />
  </g>
</svg>
